<svg xmlns="http://www.w3.org/2000/svg" width="84" height="30" viewBox="0 0 84 30">
  <!-- Left icon scaled 1.5x -->
  <g transform="scale(1.5)" fill="#0f172b">
    <path d="M10 20c6-3.81 9-9.048 9-15.714-2 0-5-1.429-9-4.286-4 2.857-7 4.286-9 4.286C1 10.952 4 16.19 10 20zm0-17.348c2.577 1.734 4.776 2.88 6.667 3.419-.44 4.627-2.636 8.353-6.667 11.297V2.652z"/>
  </g>

  <!-- Right icon, vertically centered (shifted down by 5px) -->
  <g transform="translate(34,5)" fill="#0f172b">
    <path d="m13.47372,19.88457l-10.26839,0c-1.04007,0 -1.83432,-0.24206 -2.38273,-0.72612c-0.5484,-0.48409 -0.82261,-1.11712 -0.82261,-1.89909c0,-0.78198 0.29311,-1.60118 0.87934,-2.45764l7.94241,-11.33866l-8.25443,0l0,-3.46305l12.90641,0l0,3.07206l-9.21887,13.34946l9.21887,0l0,3.46305zm16.7883,0l-7.14825,0c-2.26915,0 -3.86712,-0.38169 -4.79373,-1.14504c-0.9077,-0.78198 -1.36155,-2.15045 -1.36155,-4.10537l0,-14.63415l13.30353,0l0,3.46305l-9.36063,0l0,4.66392l6.55238,0l-0.28364,3.46305l-6.26873,0l0,2.76485c0,0.78198 0.17964,1.32192 0.5389,1.61981c0.35926,0.29789 1.01171,0.44684 1.95711,0.44684l6.86461,0l0,3.46305zm19.61396,-19.88456l0,17.87377c0,0.6144 -0.18896,1.14504 -0.56729,1.59188c-0.37812,0.42822 -0.82255,0.64232 -1.33326,0.64232c-1.30468,0 -2.37316,-0.74473 -3.20523,-2.23421l-6.97795,-10.75219l0,12.76298l-3.94283,0l0,-19.88456l3.80091,0l8.28283,13.01434l0,-13.01434l3.94282,0z"/>
  </g>
</svg>
